<?xml version="1.0" encoding="UTF-8"?>
<svg version="1.1" xmlns="http://www.w3.org/2000/svg" width="128" height="128">
<path d="M0 0 C2.55804844 1.17755973 4.97534156 2.40057065 7.4375 3.75 C18.78446989 9.65966387 29.93039859 12.30236294 42.6015625 13.41015625 C46.24319633 14.04220994 47.53489407 14.30153864 50 17 C50.40658523 19.95253752 50.56080686 22.52630811 50.53125 25.48046875 C50.53699036 26.74894402 50.53699036 26.74894402 50.54284668 28.04304504 C50.54557163 29.84112735 50.53816973 31.63924891 50.52148438 33.43725586 C50.5004261 36.13295381 50.52108211 38.82587928 50.546875 41.52148438 C50.5707094 55.37543085 49.02092074 68.77417211 42.375 81.1875 C42.03509033 81.84057129 41.69518066 82.49364258 41.3449707 83.16650391 C32.10453052 100.306198 18.18376691 111.68681521 2 122 C1.01 122.66 0.02 123.32 -1 124 C-12.97949716 123.14289787 -27.41792922 108.29482127 -35.0859375 99.609375 C-47.78598672 84.46750119 -55.04687045 66.30476993 -55.23828125 46.4609375 C-55.246353 45.65766022 -55.25442474 44.85438293 -55.26274109 44.02676392 C-55.27650586 42.33752557 -55.28726165 40.64826031 -55.29516602 38.95898438 C-55.30674658 37.23266443 -55.32729299 35.50638193 -55.35668945 33.78027344 C-55.39925425 31.27774901 -55.41551172 28.77627832 -55.42578125 26.2734375 C-55.44328934 25.50357513 -55.46079742 24.73371277 -55.47883606 23.94052124 C-55.46478316 20.47673454 -55.28201881 18.39780782 -53.25415039 15.53735352 C-50.82171552 13.87840817 -49.41430928 13.40422335 -46.5078125 13.12890625 C-45.21302979 12.98424927 -45.21302979 12.98424927 -43.89208984 12.83666992 C-42.9789502 12.74619385 -42.06581055 12.65571777 -41.125 12.5625 C-28.6398528 11.04438313 -18.22954923 7.75983212 -7.40234375 1.13671875 C-4.53270144 -0.221112 -3.14461195 -0.47631622 0 0 Z " fill="#1E334A" transform="translate(68,2)"/>
<path d="M0 0 C4.92886078 4.53564925 8.5833944 9.0287206 9.30078125 15.8671875 C9.32513763 22.11865802 8.88841815 26.45423715 6 32 C5.14777854 33.95544387 5.14777854 33.95544387 5 36 C6.07164785 37.66430825 6.07164785 37.66430825 7.78125 39.05859375 C8.37550781 39.60966797 8.96976563 40.16074219 9.58203125 40.72851562 C10.85873874 41.8661114 12.13738242 43.00153801 13.41796875 44.13476562 C15.09775496 45.69612873 16.64071357 47.15171604 18 49 C17.90625 51.91015625 17.90625 51.91015625 17 54 C14.90625 54.90625 14.90625 54.90625 12 55 C8.84457842 52.65529127 6.39871918 49.5238309 3.81640625 46.58203125 C2.27271471 44.90757995 0.82256643 43.36692482 -1 42 C-4.03292034 42.0299865 -5.54336889 42.78436864 -8.25 44.0625 C-14.17501475 46.08239139 -20.30159829 45.55573659 -26.0234375 43.09375 C-33.47783486 38.96878703 -38.36194296 33.10868223 -41 25 C-42.2523373 17.87386828 -40.75839373 11.15374334 -37 5 C-27.01426297 -6.33106403 -12.6851986 -9.11406324 0 0 Z " fill="#F5F6F6" transform="translate(78,32)"/>
<path d="M0 0 C4.41417597 2.02170659 7.17230181 4.86191499 10 8.75 C11.64102308 14.08332501 12.39575465 19.15573022 9.86328125 24.31640625 C6.90626722 28.53073334 4.02375308 31.4833953 -1 33 C-6.30976135 33.62701218 -10.55485378 33.68316003 -15.4375 31.375 C-20.20177715 26.9593285 -22.77130155 22.74438141 -23.3125 16.25 C-23.24231581 11.47747505 -21.75765893 8.87562877 -19 5 C-13.00341237 -0.42548404 -7.96843559 -1.04716613 0 0 Z " fill="#22374D" transform="translate(68,35)"/>
</svg>
